<?xml version="1.0" encoding="UTF-8" standalone="no"?><!DOCTYPE svg PUBLIC "-//W3C//DTD SVG 1.1//EN" "http://www.w3.org/Graphics/SVG/1.1/DTD/svg11.dtd"><svg width="100%" height="100%" viewBox="0 0 15 15" version="1.1" xmlns="http://www.w3.org/2000/svg" xmlns:xlink="http://www.w3.org/1999/xlink" xml:space="preserve" xmlns:serif="http://www.serif.com/" style="fill-rule:evenodd;clip-rule:evenodd;stroke-linejoin:round;stroke-miterlimit:2;"><g id="ObjectIcons_AuxBus_nor"><path id="AuxBus" d="M15,2.1c0,-1.159 -0.941,-2.1 -2.1,-2.1l-10.8,0c-1.159,0 -2.1,0.941 -2.1,2.1l0,10.8c0,1.159 0.941,2.1 2.1,2.1l10.8,0c1.159,0 2.1,-0.941 2.1,-2.1l0,-10.8Z" style="fill-opacity:0;"/><g id="AuxBus1" serif:id="AuxBus"><path d="M12,4.409c0,-0.778 -0.631,-1.409 -1.409,-1.409c0,0 -8.182,0 -8.182,0c-0.778,0 -1.409,0.631 -1.409,1.409c0,0 0,6.005 0,6.005l3.586,3.586l6.005,0c0.778,0 1.409,-0.631 1.409,-1.409l0,-8.182Z" style="fill:#212121;"/><path d="M4.5,0c-0.828,0 -1.5,0.672 -1.5,1.5l0,1c0,0.828 0.672,1.5 1.5,1.5c0.828,0 1.5,-0.672 1.5,-1.5l0,-1c0,-0.828 -0.672,-1.5 -1.5,-1.5Z" style="fill:#212121;"/><path d="M6.5,0c-0.828,0 -1.5,0.672 -1.5,1.5l0,1c0,0.828 0.672,1.5 1.5,1.5c0.828,0 1.5,-0.672 1.5,-1.5l0,-1c0,-0.828 -0.672,-1.5 -1.5,-1.5Z" style="fill:#212121;"/><path d="M8.5,0c-0.828,0 -1.5,0.672 -1.5,1.5l0,1c0,0.828 0.672,1.5 1.5,1.5c0.828,0 1.5,-0.672 1.5,-1.5l0,-1c0,-0.828 -0.672,-1.5 -1.5,-1.5Z" style="fill:#212121;"/><path d="M4,1l0,2l1,0l0,-2l-1,0Z" style="fill:#c8c8c8;"/><path d="M6,1l0,2l1,0l0,-2l-1,0Z" style="fill:#c8c8c8;"/><path d="M8,1l0,2l1,0l0,-2l-1,0Z" style="fill:#c8c8c8;"/><path d="M15,6.5c0,-0.828 -0.672,-1.5 -1.5,-1.5l-1,0c-0.828,0 -1.5,0.672 -1.5,1.5c0,0.828 0.672,1.5 1.5,1.5l1,0c0.828,0 1.5,-0.672 1.5,-1.5Z" style="fill:#212121;"/><path d="M15,8.5c0,-0.828 -0.672,-1.5 -1.5,-1.5l-1,0c-0.828,0 -1.5,0.672 -1.5,1.5c0,0.828 0.672,1.5 1.5,1.5l1,0c0.828,0 1.5,-0.672 1.5,-1.5Z" style="fill:#212121;"/><path d="M15,10.5c0,-0.828 -0.672,-1.5 -1.5,-1.5l-1,0c-0.828,0 -1.5,0.672 -1.5,1.5c0,0.828 0.672,1.5 1.5,1.5l1,0c0.828,0 1.5,-0.672 1.5,-1.5Z" style="fill:#212121;"/><rect x="12" y="6" width="2" height="1" style="fill:#c8c8c8;"/><rect x="12" y="8" width="2" height="1" style="fill:#c8c8c8;"/><rect x="12" y="10" width="2" height="1" style="fill:#c8c8c8;"/><path d="M11,4.409c0,-0.226 -0.183,-0.409 -0.409,-0.409l-8.182,0c-0.226,0 -0.409,0.183 -0.409,0.409l0,5.591l3,3l5.591,0c0.226,0 0.409,-0.183 0.409,-0.409l0,-8.182Z" style="fill:#c8c8c8;"/><rect x="8" y="3" width="1" height="1" style="fill:#919191;"/><rect x="6" y="3" width="1" height="1" style="fill:#919191;"/><rect x="4" y="3" width="1" height="1" style="fill:#919191;"/><rect x="11" y="6" width="1" height="1" style="fill:#919191;"/><rect x="11" y="8" width="1" height="1" style="fill:#919191;"/><rect x="11" y="10" width="1" height="1" style="fill:#919191;"/></g></g></svg>