<?xml version="1.0" encoding="UTF-8" standalone="no"?>
<!DOCTYPE svg PUBLIC "-//W3C//DTD SVG 1.1//EN" "http://www.w3.org/Graphics/SVG/1.1/DTD/svg11.dtd">
<svg width="100%" height="100%" viewBox="0 0 15 15" version="1.1" xmlns="http://www.w3.org/2000/svg" xmlns:xlink="http://www.w3.org/1999/xlink" xml:space="preserve" xmlns:serif="http://www.serif.com/" style="fill-rule:evenodd;clip-rule:evenodd;stroke-linejoin:round;stroke-miterlimit:1.41421;">
    <g transform="matrix(1,0,0,1,-20,-85)">
        <g transform="matrix(1,0,0,1,20,85.0003)">
            <g id="ObjectIcons_PhysicalFolder_nor">
                <g id="Icons">
                    <g transform="matrix(1,0,0,1,-40,-25.0003)">
                        <g id="Base-Block" serif:id="Base Block">
                            <path d="M55,27.1C55,25.941 54.059,25 52.9,25L42.1,25C40.941,25 40,25.941 40,27.1L40,37.9C40,39.059 40.941,40 42.1,40L52.9,40C54.059,40 55,39.059 55,37.9L55,27.1Z" style="fill-opacity:0;"/>
                        </g>
                    </g>
                    <path d="M0,1L0,14L15,14L15,3L8,2.999L8,0.999L0,1ZM7,4L7,2L1,2L1,13L14,13L14,4L7,4Z" style="fill:rgb(34,34,34);"/>
                    <g transform="matrix(1,0,0,1,-60,-45.0003)">
                        <path d="M67,49L74,49L74,58L61,58L61,49L61,47L67,47L67,49Z" style="fill:rgb(200,200,200);"/>
                    </g>
                </g>
            </g>
        </g>
    </g>
</svg>
