<?xml version="1.0" encoding="UTF-8" standalone="no"?>
<!DOCTYPE svg PUBLIC "-//W3C//DTD SVG 1.1//EN" "http://www.w3.org/Graphics/SVG/1.1/DTD/svg11.dtd">
<svg width="100%" height="100%" viewBox="0 0 15 15" version="1.1" xmlns="http://www.w3.org/2000/svg" xmlns:xlink="http://www.w3.org/1999/xlink" xml:space="preserve" xmlns:serif="http://www.serif.com/" style="fill-rule:evenodd;clip-rule:evenodd;stroke-linejoin:round;stroke-miterlimit:1.41421;">
    <g transform="matrix(1,0,0,1,-140,-285)">
        <g transform="matrix(1,0,0,1,140,285)">
            <g id="ObjectIcons_AcousticTexture_nor">
                <g id="Icons">
                    <g transform="matrix(1,0,0,1,-40,-25)">
                        <g id="Base-Block" serif:id="Base Block">
                            <path d="M55,27.1C55,25.941 54.059,25 52.9,25L42.1,25C40.941,25 40,25.941 40,27.1L40,37.9C40,39.059 40.941,40 42.1,40L52.9,40C54.059,40 55,39.059 55,37.9L55,27.1Z" style="fill-opacity:0;"/>
                        </g>
                    </g>
                    <path d="M9,5.086L9,2.5C9,1.672 9.672,1 10.5,1C11.328,1 12,1.672 12,2.5L12,3.086C12.156,3.03 12.325,3 12.5,3C13.328,3 14,3.672 14,4.5L14,12.5C14,13.328 13.328,14 12.5,14C12.5,14 2.5,14 2.5,14C1.672,14 1,13.328 1,12.5L1,6.5C1,5.672 1.672,5 2.5,5C3.328,5 4,5.672 4,6.5L4,9.086C4.156,9.03 4.325,9 4.5,9C4.675,9 4.844,9.03 5,9.086L5,8.5C5,7.672 5.672,7 6.5,7C6.675,7 6.844,7.03 7,7.086L7,6.5C7,5.672 7.672,5 8.5,5C8.675,5 8.844,5.03 9,5.086ZM11,13L11,2L10,2L10,13L11,13ZM7,13L7,8L6,8L6,13L7,13ZM3,13L3,6L2,6L2,13L3,13ZM9,13L9,6L8,6L8,13L9,13ZM13,13L13,4L12,4L12,13L13,13ZM5,13L5,10L4,10L4,13L5,13Z" style="fill:rgb(34,34,34);"/>
                    <g transform="matrix(-1,0,0,1.75,5,2.5)">
                        <rect x="2" y="2" width="1" height="4" style="fill:rgb(216,216,216);"/>
                    </g>
                    <g transform="matrix(-1,0,0,1.5,9,7)">
                        <rect x="4" y="2" width="1" height="2" style="fill:rgb(216,216,216);"/>
                    </g>
                    <g transform="matrix(-1,0,0,1.66667,13,4.66667)">
                        <rect x="6" y="2" width="1" height="3" style="fill:rgb(216,216,216);"/>
                    </g>
                    <g transform="matrix(-1,0,0,1.75,17,2.5)">
                        <rect x="8" y="2" width="1" height="4" style="fill:rgb(216,216,216);"/>
                    </g>
                    <g transform="matrix(-1,0,0,1.83333,21,-1.66667)">
                        <rect x="10" y="2" width="1" height="6" style="fill:rgb(216,216,216);"/>
                    </g>
                    <g transform="matrix(-1,0,0,1.8,25,0.4)">
                        <rect x="12" y="2" width="1" height="5" style="fill:rgb(216,216,216);"/>
                    </g>
                </g>
            </g>
        </g>
    </g>
</svg>
