<?xml version="1.0" encoding="UTF-8" standalone="no"?>
<!DOCTYPE svg PUBLIC "-//W3C//DTD SVG 1.1//EN" "http://www.w3.org/Graphics/SVG/1.1/DTD/svg11.dtd">
<svg width="100%" height="100%" viewBox="0 0 15 15" version="1.1" xmlns="http://www.w3.org/2000/svg" xmlns:xlink="http://www.w3.org/1999/xlink" xml:space="preserve" xmlns:serif="http://www.serif.com/" style="fill-rule:evenodd;clip-rule:evenodd;stroke-linejoin:round;stroke-miterlimit:1.41421;">
    <g transform="matrix(1,0,0,1,-100,-165)">
        <g transform="matrix(1,0,0,1,100,165)">
            <g id="ObjectIcons_Switch_nor">
                <g id="Icons">
                    <g transform="matrix(1,0,0,1,-40,-25)">
                        <g id="Base-Block" serif:id="Base Block">
                            <path d="M55,27.1C55,25.941 54.059,25 52.9,25L42.1,25C40.941,25 40,25.941 40,27.1L40,37.9C40,39.059 40.941,40 42.1,40L52.9,40C54.059,40 55,39.059 55,37.9L55,27.1Z" style="fill-opacity:0;"/>
                        </g>
                    </g>
                    <path d="M4.2,13L3.8,13C2.807,13 2,12.193 2,11.2L2,3.8C2,2.808 2.805,2.002 3.8,2L4.2,2L4.384,2.009L4.5,2.027L4.616,2.009L4.8,2L10.2,2L10.384,2.009L10.5,2.027L10.616,2.009L10.8,2L11.2,2C12.195,2.002 13,2.808 13,3.8L13,11.2C13,12.191 12.197,12.996 11.2,13L10.8,13C10.698,13 10.597,12.991 10.5,12.973L10.384,12.991L10.2,13L4.8,13C4.698,13 4.597,12.991 4.5,12.973L4.384,12.991L4.2,13ZM12,12L12,3L3,3L3,12L12,12ZM10,5L10,10L5,10L5,5L10,5ZM9,6L6,6L6,9L9,9L9,6Z" style="fill:rgb(34,34,34);"/>
                    <path d="M10,5L5,5L5,10L10,10L10,5ZM12,12L3,12L3,3L12,3L12,12Z" style="fill:rgb(200,200,200);"/>
                </g>
            </g>
        </g>
    </g>
</svg>
