<?xml version="1.0" encoding="UTF-8" standalone="no"?><!DOCTYPE svg PUBLIC "-//W3C//DTD SVG 1.1//EN" "http://www.w3.org/Graphics/SVG/1.1/DTD/svg11.dtd"><svg width="100%" height="100%" viewBox="0 0 15 15" version="1.1" xmlns="http://www.w3.org/2000/svg" xmlns:xlink="http://www.w3.org/1999/xlink" xml:space="preserve" xmlns:serif="http://www.serif.com/" style="fill-rule:evenodd;clip-rule:evenodd;stroke-linejoin:round;stroke-miterlimit:2;"><g id="ObjectIcons_Bus_nor"><g id="Base-Block" serif:id="Base Block"><path d="M15,2.1c0,-1.159 -0.941,-2.1 -2.1,-2.1l-10.8,0c-1.159,0 -2.1,0.941 -2.1,2.1l0,10.8c0,1.159 0.941,2.1 2.1,2.1l10.8,0c1.159,0 2.1,-0.941 2.1,-2.1l0,-10.8Z" style="fill-opacity:0;"/></g><g id="Bus"><path d="M14,3.5c0,-0.828 -0.672,-1.5 -1.5,-1.5c0,0 -7,0 -7,0c-0.828,0 -1.5,0.672 -1.5,1.5c0,0 0,8 0,8c0,0.828 0.672,1.5 1.5,1.5l7,0c0.828,0 1.5,-0.672 1.5,-1.5l0,-8Zm-1,0c0,-0.276 -0.224,-0.5 -0.5,-0.5l-7,0c-0.276,0 -0.5,0.224 -0.5,0.5l0,8c0,0.276 0.224,0.5 0.5,0.5l7,0c0.276,0 0.5,-0.224 0.5,-0.5l0,-8Z" style="fill:#212121;"/><path d="M13,3.5c0,-0.276 -0.224,-0.5 -0.5,-0.5l-7,0c-0.276,0 -0.5,0.224 -0.5,0.5l0,8c0,0.276 0.224,0.5 0.5,0.5l7,0c0.276,0 0.5,-0.224 0.5,-0.5l0,-8Z" style="fill:#c8c8c8;"/><path d="M4,4l-3,0l0,3l4,0l0,-2l-1,-1Zm0,1l-2,0l0,1l2,0l0,-1Z" style="fill:#212121;"/><rect x="2" y="5" width="2" height="1" style="fill:#c8c8c8;"/><path d="M4,6l-3,0l0,3l4,0l0,-2l-1,-1Zm0,1l-2,0l0,1l2,0l0,-1Z" style="fill:#212121;"/><rect x="2" y="7" width="2" height="1" style="fill:#c8c8c8;"/><path d="M4,8l-3,0l0,3l3,0l1,-1l0,-1l-1,-1Zm0,1l-2,0l0,1l2,0l0,-1Z" style="fill:#212121;"/><rect x="2" y="9" width="2" height="1" style="fill:#c8c8c8;"/><path d="M5,10l-1,0l0,-1l1,0l0,1Zm0,-2l-1,0l0,-1l1,0l0,1Zm0,-2l-1,0l0,-1l1,0l0,1Z" style="fill:#919191;"/></g></g></svg>