<?xml version="1.0" encoding="UTF-8" standalone="no"?>
<!DOCTYPE svg PUBLIC "-//W3C//DTD SVG 1.1//EN" "http://www.w3.org/Graphics/SVG/1.1/DTD/svg11.dtd">
<svg width="100%" height="100%" viewBox="0 0 15 15" version="1.1" xmlns="http://www.w3.org/2000/svg" xmlns:xlink="http://www.w3.org/1999/xlink" xml:space="preserve" xmlns:serif="http://www.serif.com/" style="fill-rule:evenodd;clip-rule:evenodd;stroke-linejoin:round;stroke-miterlimit:1.41421;">
    <g transform="matrix(1,0,0,1,-80,-165)">
        <g transform="matrix(1,0,0,1,80,165)">
            <g id="ObjectIcons_SwitchGroup_nor">
                <g id="Icons">
                    <g transform="matrix(1,0,0,1,-40,-25)">
                        <g id="Base-Block" serif:id="Base Block">
                            <path d="M55,27.1C55,25.941 54.059,25 52.9,25L42.1,25C40.941,25 40,25.941 40,27.1L40,37.9C40,39.059 40.941,40 42.1,40L52.9,40C54.059,40 55,39.059 55,37.9L55,27.1Z" style="fill-opacity:0;"/>
                        </g>
                    </g>
                    <g transform="matrix(1,0,0,1,-80,-105)">
                        <path d="M84.65,106C85.395,106 86,106.605 86,107.35L86,117.65C86,118.395 85.395,119 84.65,119L84.35,119C83.605,119 83,118.395 83,117.65L83,107.35C83,106.605 83.605,106 84.35,106L84.65,106ZM85,107L84,107L84,118L85,118L85,107Z" style="fill:rgb(34,34,34);"/>
                    </g>
                    <path d="M6.558,5.5C6.214,5.173 6,4.711 6,4.2L6,2.8C6,1.807 6.807,1 7.8,1L9.2,1C10.193,1 11,1.807 11,2.8L11,4.2C11,4.711 10.786,5.173 10.442,5.5C10.786,5.827 11,6.289 11,6.8L11,8.2C11,8.711 10.786,9.173 10.442,9.5C10.786,9.827 11,10.289 11,10.8L11,12.2C11,13.192 10.196,13.998 9.2,14L7.8,14C6.807,14 6,13.193 6,12.2L6,10.8C6,10.289 6.214,9.827 6.558,9.5C6.214,9.173 6,8.711 6,8.2L6,6.8C6,6.289 6.214,5.827 6.558,5.5ZM10,10L9.2,10C9.2,10 7.8,10 7.8,10C7.8,10 7,10 7,10L7,13L10,13L10,10ZM7.8,6L7,6L7,9L10,9L10,6L9.2,6L7.8,6ZM10,2L7,2L7,5L10,5L10,2Z" style="fill:rgb(34,34,34);"/>
                    <g transform="matrix(1,0,0,1,-3,-8)">
                        <rect x="10" y="10" width="3" height="3" style="fill:rgb(200,200,200);"/>
                    </g>
                    <g transform="matrix(1,0,0,1,-3,-4)">
                        <rect x="10" y="10" width="3" height="3" style="fill:rgb(200,200,200);"/>
                    </g>
                    <g transform="matrix(1,0,0,1,-3,-1.42109e-13)">
                        <rect x="10" y="10" width="3" height="3" style="fill:rgb(200,200,200);"/>
                    </g>
                    <g transform="matrix(6.12323e-17,-1,1,5.72119e-18,2,7)">
                        <rect x="-6" y="2" width="11" height="1" style="fill:rgb(200,200,200);"/>
                    </g>
                </g>
            </g>
        </g>
    </g>
</svg>
