<?xml version="1.0" encoding="UTF-8" standalone="no"?>
<!DOCTYPE svg PUBLIC "-//W3C//DTD SVG 1.1//EN" "http://www.w3.org/Graphics/SVG/1.1/DTD/svg11.dtd">
<svg width="100%" height="100%" viewBox="0 0 15 15" version="1.1" xmlns="http://www.w3.org/2000/svg" xmlns:xlink="http://www.w3.org/1999/xlink" xml:space="preserve" xmlns:serif="http://www.serif.com/" style="fill-rule:evenodd;clip-rule:evenodd;stroke-linejoin:round;stroke-miterlimit:1.41421;">
    <g transform="matrix(1,0,0,1,-100,-85)">
        <g transform="matrix(1,0,0,1,100,85)">
            <g id="ObjectIcons_Soundbank_nor">
                <g id="Icons">
                    <g transform="matrix(1,0,0,1,-40,-25)">
                        <g id="Base-Block" serif:id="Base Block">
                            <path d="M55,27.1C55,25.941 54.059,25 52.9,25L42.1,25C40.941,25 40,25.941 40,27.1L40,37.9C40,39.059 40.941,40 42.1,40L52.9,40C54.059,40 55,39.059 55,37.9L55,27.1Z" style="fill-opacity:0;"/>
                        </g>
                    </g>
                    <path d="M10.58,14L4.42,14C3.084,14 2,12.916 2,11.58L2,11L1.75,11C0.784,11 0,10.216 0,9.25L0,5.75C0,4.786 0.781,4.003 1.75,4L2,4L2,3.42C2,2.086 3.081,1.003 4.42,1L10.58,1C11.919,1.003 13,2.086 13,3.42L13,4L13.25,4C14.219,4.003 15,4.786 15,5.75L15,9.25C15,10.216 14.216,11 13.25,11L13,11L13,11.58C13,12.915 11.916,14 10.58,14ZM10.74,2L4.26,2C3.564,2.001 3,2.565 3,3.26L3,5L1,5L1,6L3,6L3,7L1,7L1,8L3,8L3,9L1,9L1,10L3,10L3,11.74C3,12.435 3.565,13 4.26,13L10.74,13C11.435,13 12,12.435 12,11.74L12,10L14,10L14,9L12,9L12,8L14,8L14,7L12,7L12,6L14,6L14,5L12,5L12,3.26C12,2.565 11.436,2.001 10.74,2Z" style="fill:rgb(34,34,34);"/>
                    <g transform="matrix(0.333333,0,0,1,9.33333,0)">
                        <rect x="11" y="7" width="3" height="1" style="fill:rgb(226,226,226);"/>
                    </g>
                    <g transform="matrix(0.333333,0,0,1,9.33333,-4)">
                        <rect x="11" y="9" width="3" height="1" style="fill:rgb(226,226,226);"/>
                    </g>
                    <g transform="matrix(0.333333,0,0,1,9.33333,4)">
                        <rect x="11" y="5" width="3" height="1" style="fill:rgb(226,226,226);"/>
                    </g>
                    <g transform="matrix(0.333333,0,0,1,0.666667,0)">
                        <rect x="1" y="7" width="3" height="1" style="fill:rgb(226,226,226);"/>
                    </g>
                    <g transform="matrix(0.333333,0,0,1,0.666667,-4)">
                        <rect x="1" y="9" width="3" height="1" style="fill:rgb(226,226,226);"/>
                    </g>
                    <g transform="matrix(0.333333,0,0,1,0.666667,4)">
                        <rect x="1" y="5" width="3" height="1" style="fill:rgb(226,226,226);"/>
                    </g>
                    <path d="M10.74,2C11.438,2.003 12,2.566 12,3.26L12,11.74C12,12.435 11.435,13 10.74,13L4.26,13C3.565,13 3,12.435 3,11.74L3,3.26C3,2.566 3.562,2.003 4.26,2L10.74,2ZM10,6C9.984,4.653 9.505,3.898 7.527,3.898C5.409,3.898 4.883,4.772 4.883,6C4.883,7.228 5.478,8.083 7.508,8.06C8.724,8.047 9,8.279 9,9C9,9.721 8.718,10 7.522,10C6.15,10 6.012,9.698 6,9L5,9C4.985,10.256 5.361,11.106 7.578,11.106C9.794,11.106 10.102,10.303 10.102,9C10.102,7.42 9.628,6.962 7.557,6.953C6.62,6.949 6.011,6.947 6,6C5.99,5.179 6.716,5 7.573,5C8.752,5 8.996,5.125 9,6L10,6Z" style="fill:rgb(200,200,200);"/>
                    <g transform="matrix(-1,-0,0,1,24,-4)">
                        <rect x="11" y="9" width="1" height="1" style="fill:rgb(145,145,145);"/>
                    </g>
                    <g transform="matrix(0.842382,0,0,0.774249,-117.591,-64.2877)">
                        <path d="M148.589,97.376C145.958,97.376 145.511,96.278 145.529,94.656L146.716,94.656C146.731,95.558 146.894,95.948 148.523,95.948C149.943,95.948 150.278,95.587 150.278,94.656C150.278,93.726 149.949,93.425 148.506,93.443C146.097,93.472 145.391,92.368 145.391,90.782C145.391,89.196 146.014,88.067 148.529,88.067C150.88,88.067 151.447,89.044 151.465,90.782L150.278,90.782C150.273,89.651 149.983,89.49 148.584,89.49C147.566,89.49 146.705,89.721 146.716,90.782C146.73,92.005 147.453,92.008 148.564,92.013C151.023,92.025 151.586,92.616 151.586,94.656C151.586,96.339 151.221,97.376 148.589,97.376Z" style="fill:rgb(34,34,34);"/>
                    </g>
                    <g transform="matrix(-1,-0,0,1,24,0)">
                        <rect x="11" y="7" width="1" height="1" style="fill:rgb(145,145,145);"/>
                    </g>
                    <g transform="matrix(-1,-0,0,1,24,4)">
                        <rect x="11" y="5" width="1" height="1" style="fill:rgb(145,145,145);"/>
                    </g>
                    <g transform="matrix(-1,-0,0,1,6,-4)">
                        <rect x="3" y="9" width="1" height="1" style="fill:rgb(145,145,145);"/>
                    </g>
                    <g transform="matrix(-1,-0,0,1,6,0)">
                        <rect x="3" y="7" width="1" height="1" style="fill:rgb(145,145,145);"/>
                    </g>
                    <g transform="matrix(-1,-0,0,1,6,4)">
                        <rect x="3" y="5" width="1" height="1" style="fill:rgb(145,145,145);"/>
                    </g>
                </g>
            </g>
        </g>
    </g>
</svg>
