<?xml version="1.0" encoding="UTF-8" standalone="no"?>
<!DOCTYPE svg PUBLIC "-//W3C//DTD SVG 1.1//EN" "http://www.w3.org/Graphics/SVG/1.1/DTD/svg11.dtd">
<svg width="100%" height="100%" viewBox="0 0 15 15" version="1.1" xmlns="http://www.w3.org/2000/svg" xmlns:xlink="http://www.w3.org/1999/xlink" xml:space="preserve" xmlns:serif="http://www.serif.com/" style="fill-rule:evenodd;clip-rule:evenodd;stroke-linejoin:round;stroke-miterlimit:1.41421;">
    <g transform="matrix(1,0,0,1,-20,-165)">
        <g transform="matrix(1,0,0,1,20,165)">
            <g id="ObjectIcons_GameParameter_nor">
                <g id="Icons">
                    <g transform="matrix(1,0,0,1,-40,-25)">
                        <g id="Base-Block" serif:id="Base Block">
                            <path d="M55,27.1C55,25.941 54.059,25 52.9,25L42.1,25C40.941,25 40,25.941 40,27.1L40,37.9C40,39.059 40.941,40 42.1,40L52.9,40C54.059,40 55,39.059 55,37.9L55,27.1Z" style="fill-opacity:0;"/>
                        </g>
                    </g>
                    <path d="M9.802,6C9.589,6.323 9.317,6.594 9,6.8L9,9.205C9.753,9.695 10.25,10.544 10.25,11.508C10.25,13.025 9.019,14.256 7.502,14.256C6.536,14.256 5.685,13.756 5.196,13L0.75,13C0.336,13 0,12.664 0,12.25L0,10.75C0,10.337 0.335,10.001 0.75,10L5.206,10C5.413,9.685 5.684,9.415 6,9.208L6,6.797C5.25,6.307 4.754,5.459 4.754,4.497C4.754,2.98 5.986,1.749 7.502,1.749C8.464,1.749 9.311,2.244 9.806,3L14.25,3C14.67,3.007 15,3.34 15,3.75L15,5.25C15,5.66 14.67,5.993 14.25,6L9.802,6ZM14,5L14,4L9.177,4C8.962,3.277 8.292,2.75 7.5,2.75C6.534,2.75 5.75,3.534 5.75,4.5C5.75,5.292 6.277,5.962 7,6.177L7,9.823C6.436,9.991 5.991,10.436 5.823,11L1,11L1,12L5.823,12C6.038,12.723 6.708,13.25 7.5,13.25C8.466,13.25 9.25,12.466 9.25,11.5C9.25,10.708 8.723,10.038 8,9.823L8,6.177C8.561,6.01 9.004,5.57 9.177,5L14,5Z" style="fill:rgb(34,34,34);"/>
                    <g transform="matrix(1,0,0,1,-80,-45)">
                        <path d="M87,51.177C86.277,50.962 85.75,50.292 85.75,49.5C85.75,48.534 86.534,47.75 87.5,47.75C88.292,47.75 88.962,48.277 89.177,49C89.264,49.363 89.261,49.695 89.177,50C89.009,50.564 88.564,51.009 88,51.177L88,54.823C88.723,55.038 89.25,55.708 89.25,56.5C89.25,57.466 88.466,58.25 87.5,58.25C86.708,58.25 86.038,57.723 85.823,57C85.727,56.693 85.721,56.361 85.823,56C85.991,55.436 86.436,54.991 87,54.823L87,51.177Z" style="fill:rgb(216,216,216);"/>
                    </g>
                    <g transform="matrix(3.31388e-17,-0.138727,-1,-4.66124e-16,15,7.54407)">
                        <path d="M10,7L4,7L4,8L10,8C9.35,7.679 9.37,7.345 10,7Z" style="fill:rgb(113,113,113);"/>
                    </g>
                    <g transform="matrix(-5.86225e-17,0.138727,1,4.83287e-16,2.45137e-13,7.44509)">
                        <path d="M17.208,7L15.764,7L15.586,7L11.208,7L11.208,8L17.208,8C16.559,7.679 16.579,7.345 17.208,7Z" style="fill:rgb(113,113,113);"/>
                    </g>
                    <g transform="matrix(-0.138727,0,0,1,10.5549,-3)">
                        <path d="M10,7L4,7L4,8L10,8C9.35,7.679 9.37,7.345 10,7Z" style="fill:rgb(113,113,113);"/>
                    </g>
                    <g transform="matrix(1,0,0,1,-80,-45)">
                        <rect x="90" y="49" width="4" height="1" style="fill:rgb(226,226,226);"/>
                    </g>
                    <g transform="matrix(-0.166667,0,0,1,6.66667,3)">
                        <path d="M10,8L5.128,8C5.632,8.311 5.691,8.642 5.128,9L10,9L10,8Z" style="fill:rgb(113,113,113);"/>
                    </g>
                    <g transform="matrix(1,0,0,1,-89,-38)">
                        <rect x="90" y="49" width="4" height="1" style="fill:rgb(226,226,226);"/>
                    </g>
                </g>
            </g>
        </g>
    </g>
</svg>
