<?xml version="1.0" encoding="UTF-8" standalone="no"?>
<!DOCTYPE svg PUBLIC "-//W3C//DTD SVG 1.1//EN" "http://www.w3.org/Graphics/SVG/1.1/DTD/svg11.dtd">
<svg width="100%" height="100%" viewBox="0 0 15 15" version="1.1" xmlns="http://www.w3.org/2000/svg" xmlns:xlink="http://www.w3.org/1999/xlink" xml:space="preserve" xmlns:serif="http://www.serif.com/" style="fill-rule:evenodd;clip-rule:evenodd;stroke-linejoin:round;stroke-miterlimit:1.41421;">
    <g transform="matrix(1,0,0,1,-20,-45)">
        <g transform="matrix(1,0,0,1,20,45)">
            <g id="ObjectIcons_Event_nor">
                <g id="Icons">
                    <g transform="matrix(1,0,0,1,-40,-25)">
                        <g id="Base-Block" serif:id="Base Block">
                            <path d="M55,27.1C55,25.941 54.059,25 52.9,25L42.1,25C40.941,25 40,25.941 40,27.1L40,37.9C40,39.059 40.941,40 42.1,40L52.9,40C54.059,40 55,39.059 55,37.9L55,27.1Z" style="fill-opacity:0;"/>
                        </g>
                    </g>
                    <path d="M4.86,6L2.14,6C1.511,6 1,5.489 1,4.86L1,4.14C1,3.512 1.509,3.001 2.14,3L4.86,3L4.976,3.006L5,3.009L5,2.56C5,1.7 5.698,1.001 6.56,1L9.44,1C10.302,1.001 11,1.7 11,2.56L11,5L12.86,5C13.495,5.006 14,5.515 14,6.14L14,6.86C14,7.488 13.491,7.999 12.86,8C13.491,8.001 14,8.512 14,9.14L14,9.86C14,10.485 13.495,10.994 12.86,11L11,11L12.86,11C13.491,11.001 14,11.512 14,12.14L14,12.86C14,13.486 13.494,13.995 12.86,14L10.14,14C10.028,14 9.919,13.984 9.816,13.952C9.7,13.983 9.578,13.999 9.44,14L6.56,14C5.699,14 5,13.301 5,12.44L5,5.991L4.976,5.994L4.86,6ZM10,6L10,2L6,2L6,4L2,4L2,5L6,5L6,13L13,13L13,12L10,12L10,10L13,10L13,9L10,9L10,7L13,7L13,6L10,6Z" style="fill:rgb(34,34,34);"/>
                    <g transform="matrix(0.5,0,0,1,6,2)">
                        <rect x="10" y="7" width="4" height="1" style="fill:rgb(200,200,200);"/>
                    </g>
                    <g transform="matrix(0.5,0,0,1,6,-3)">
                        <rect x="10" y="9" width="4" height="1" style="fill:rgb(200,200,200);"/>
                    </g>
                    <g transform="matrix(0.5,0,0,1,6,7)">
                        <rect x="10" y="5" width="4" height="1" style="fill:rgb(200,200,200);"/>
                    </g>
                    <g transform="matrix(0.75,0,0,1,1.25,-5)">
                        <rect x="1" y="9" width="4" height="1" style="fill:rgb(200,200,200);"/>
                    </g>
                    <g transform="matrix(0.8,0,0,1.57143,2,-4.28571)">
                        <rect x="5" y="4" width="5" height="7" style="fill:rgb(200,200,200);"/>
                    </g>
                    <g transform="matrix(-1,-0,0,1,21,-3)">
                        <rect x="10" y="9" width="1" height="1" style="fill:rgb(113,113,113);"/>
                    </g>
                    <g transform="matrix(-1,-0,0,1,21,2)">
                        <rect x="10" y="7" width="1" height="1" style="fill:rgb(113,113,113);"/>
                    </g>
                    <g transform="matrix(-1,-0,0,1,21,7)">
                        <rect x="10" y="5" width="1" height="1" style="fill:rgb(113,113,113);"/>
                    </g>
                    <g transform="matrix(-1,-0,0,1,10,-5)">
                        <rect x="4" y="9" width="1" height="1" style="fill:rgb(113,113,113);"/>
                    </g>
                </g>
            </g>
        </g>
    </g>
</svg>
