<?xml version="1.0" encoding="UTF-8" standalone="no"?><!DOCTYPE svg PUBLIC "-//W3C//DTD SVG 1.1//EN" "http://www.w3.org/Graphics/SVG/1.1/DTD/svg11.dtd"><svg width="100%" height="100%" viewBox="0 0 15 15" version="1.1" xmlns="http://www.w3.org/2000/svg" xmlns:xlink="http://www.w3.org/1999/xlink" xml:space="preserve" xmlns:serif="http://www.serif.com/" style="fill-rule:evenodd;clip-rule:evenodd;stroke-linejoin:round;stroke-miterlimit:2;"><g id="ObjectIcons_Project_nor"><clipPath id="_clip1"><rect x="-0" y="-0" width="15" height="15"/></clipPath><g clip-path="url(#_clip1)"><g id="Object-Icon-Base" serif:id="Object Icon Base"><path d="M15,2.1c-0,-1.159 -0.941,-2.1 -2.1,-2.1l-10.8,-0c-1.159,-0 -2.1,0.941 -2.1,2.1l-0,10.8c-0,1.159 0.941,2.1 2.1,2.1l10.8,-0c1.159,-0 2.1,-0.941 2.1,-2.1l-0,-10.8Z" style="fill-opacity:0;"/></g><g><clipPath id="_clip2"><rect x="0.013" y="0" width="14.987" height="15"/></clipPath><g clip-path="url(#_clip2)"><path d="M7.944,9.827c0.003,0.474 0.217,0.899 0.557,1.165c0.338,0.296 0.556,0.746 0.556,1.247c0,0.898 -0.692,1.623 -1.546,1.623l-0.026,-0c-0.855,-0 -1.549,-0.725 -1.549,-1.623c0,-0.501 0.22,-0.951 0.559,-1.247c0.338,-0.266 0.559,-0.691 0.556,-1.165l-0,-0.115c-0.004,-0.478 -0.218,-0.902 -0.556,-1.166c-0.339,-0.298 -0.559,-0.747 -0.559,-1.249c0,-0.898 0.694,-1.623 1.549,-1.623l0.026,-0c0.854,-0 1.546,0.725 1.546,1.623c0,0.502 -0.218,0.951 -0.556,1.249c-0.34,0.264 -0.56,0.688 -0.557,1.166l0,0.115Zm3.347,-2.675c0.003,0.475 0.222,0.9 0.572,1.166c0.348,0.296 0.572,0.746 0.572,1.246c0,0.9 -0.712,1.624 -1.59,1.624l-0.027,0c-0.88,0 -1.592,-0.724 -1.592,-1.624c-0,-0.5 0.225,-0.95 0.574,-1.246c0.347,-0.266 0.575,-0.691 0.571,-1.166l0,-0.113c-0.003,-0.479 -0.224,-0.903 -0.571,-1.167c-0.349,-0.298 -0.574,-0.747 -0.574,-1.248c-0,-0.898 0.712,-1.624 1.592,-1.624l0.027,-0c0.878,-0 1.59,0.726 1.59,1.624c0,0.501 -0.224,0.95 -0.572,1.248c-0.35,0.264 -0.576,0.688 -0.572,1.167l-0,0.113Zm-6.63,0c0.003,0.475 0.225,0.9 0.578,1.166c0.352,0.296 0.579,0.746 0.579,1.246c-0,0.9 -0.72,1.624 -1.608,1.624l-0.027,0c-0.889,0 -1.609,-0.724 -1.609,-1.624c-0,-0.5 0.228,-0.95 0.58,-1.246c0.352,-0.266 0.581,-0.691 0.578,-1.166l0,-0.113c-0.003,-0.479 -0.226,-0.903 -0.578,-1.167c-0.352,-0.298 -0.58,-0.747 -0.58,-1.248c-0,-0.898 0.72,-1.624 1.609,-1.624l0.027,-0c0.888,-0 1.608,0.726 1.608,1.624c-0,0.501 -0.227,0.95 -0.579,1.248c-0.353,0.264 -0.581,0.688 -0.578,1.167l0,0.113Zm10.339,-0.23c0,-0.678 -0.545,-1.229 -1.216,-1.229c-0.672,0 -1.217,0.551 -1.217,1.229c0,0.678 0.545,1.228 1.217,1.228c0.671,0 1.216,-0.55 1.216,-1.228Zm-12.554,-0c0,-0.678 -0.545,-1.229 -1.216,-1.229c-0.672,0 -1.217,0.551 -1.217,1.229c0,0.678 0.545,1.228 1.217,1.228c0.671,0 1.216,-0.55 1.216,-1.228Zm6.653,-4.311c0,-0.904 -0.726,-1.637 -1.621,-1.637c-0.896,-0 -1.622,0.733 -1.622,1.637c-0,0.904 0.726,1.638 1.622,1.638c0.895,-0 1.621,-0.734 1.621,-1.638Z" style="fill:#c8c8c8;fill-rule:nonzero;"/><path d="M7.485,14.862l0.091,-0.001c1.363,-0.035 2.481,-1.18 2.481,-2.622c0,-0.056 -0.002,-0.112 -0.005,-0.167c0.242,0.075 0.499,0.116 0.766,0.116l0.027,0c1.424,0 2.59,-1.165 2.59,-2.624c0,-0.153 -0.013,-0.302 -0.038,-0.448c0.126,0.023 0.255,0.034 0.387,0.034c1.22,0 2.216,-0.995 2.216,-2.228c0,-1.233 -0.996,-2.229 -2.216,-2.229c-0.12,0 -0.237,0.01 -0.351,0.029c0.001,-0.033 0.002,-0.065 0.002,-0.098c0,-1.457 -1.166,-2.624 -2.59,-2.624l-0.027,-0c-0.266,-0 -0.523,0.04 -0.765,0.116c-0.231,-1.221 -1.299,-2.142 -2.575,-2.142c-1.27,-0 -2.333,0.91 -2.572,2.12c-0.221,-0.061 -0.455,-0.094 -0.696,-0.094l-0.027,-0c-1.438,-0 -2.609,1.17 -2.609,2.624c-0,0.032 0.001,0.065 0.002,0.097c-0.113,-0.018 -0.228,-0.028 -0.346,-0.028c-1.221,0 -2.217,0.996 -2.217,2.229c0,1.233 0.996,2.228 2.217,2.228c0.13,0 0.258,-0.011 0.382,-0.033c-0.025,0.145 -0.038,0.295 -0.038,0.447c-0,1.433 1.134,2.588 2.542,2.623l0.094,0.001c0.254,0 0.499,-0.036 0.731,-0.104c-0.003,0.051 -0.005,0.103 -0.005,0.155c0,1.465 1.155,2.623 2.549,2.623Zm0.968,-8.852c0.023,-0.067 0.04,-0.136 0.049,-0.208c-0.105,-0.211 -0.183,-0.439 -0.229,-0.677c-0.081,0.026 -0.164,0.048 -0.248,0.066c0.001,0.166 -0.039,0.356 -0.098,0.542c-0.132,-0.039 -0.272,-0.059 -0.416,-0.059l-0.026,-0c-0.855,-0 -1.549,0.725 -1.549,1.623c0,0.502 0.22,0.951 0.559,1.249c0.338,0.264 0.552,0.688 0.556,1.166l-0,0.115c0.002,0.349 -0.117,0.672 -0.316,0.924c-0.052,-0.019 -0.107,-0.043 -0.163,-0.072l-0.009,0.021c0.049,0.028 0.102,0.051 0.156,0.07c-0.066,0.083 -0.142,0.157 -0.224,0.222c-0.339,0.296 -0.559,0.746 -0.559,1.247c0,0.898 0.694,1.623 1.549,1.623l0.026,-0c0.854,-0 1.546,-0.725 1.546,-1.623c0,-0.501 -0.218,-0.951 -0.556,-1.247c-0.083,-0.065 -0.159,-0.14 -0.225,-0.222c0.067,-0.023 0.132,-0.054 0.193,-0.092l-0.009,-0.019c-0.067,0.039 -0.136,0.069 -0.2,0.092c-0.197,-0.252 -0.313,-0.575 -0.316,-0.924l0,-0.115c-0.003,-0.478 0.217,-0.902 0.557,-1.166c0.338,-0.298 0.556,-0.747 0.556,-1.249c0,-0.525 -0.237,-0.991 -0.604,-1.287Zm3.16,2.064c-0.201,-0.252 -0.32,-0.573 -0.322,-0.922l-0,-0.113c-0.004,-0.479 0.222,-0.903 0.572,-1.167c0.348,-0.298 0.572,-0.747 0.572,-1.248c0,-0.898 -0.712,-1.624 -1.59,-1.624l-0.027,-0c-0.88,-0 -1.592,0.726 -1.592,1.624c-0,0.501 0.225,0.95 0.574,1.248c0.347,0.264 0.568,0.688 0.571,1.167l0,0.113c0.003,0.349 -0.119,0.67 -0.322,0.922c-0.031,-0.011 -0.062,-0.024 -0.094,-0.039l-0.007,0.023c0.028,0.013 0.056,0.025 0.085,0.035c-0.069,0.084 -0.148,0.159 -0.233,0.225c-0.349,0.296 -0.574,0.746 -0.574,1.246c-0,0.9 0.712,1.624 1.592,1.624l0.027,0c0.878,0 1.59,-0.724 1.59,-1.624c0,-0.5 -0.224,-0.95 -0.572,-1.246c-0.087,-0.066 -0.165,-0.141 -0.234,-0.225c0.073,-0.026 0.143,-0.061 0.209,-0.104l-0.009,-0.017c-0.073,0.043 -0.147,0.077 -0.216,0.102Zm-6.627,-0.002c-0.203,-0.251 -0.323,-0.572 -0.325,-0.92l0,-0.113c-0.003,-0.479 0.225,-0.903 0.578,-1.167c0.352,-0.298 0.579,-0.747 0.579,-1.248c-0,-0.898 -0.72,-1.624 -1.608,-1.624l-0.027,-0c-0.889,-0 -1.609,0.726 -1.609,1.624c-0,0.501 0.228,0.95 0.58,1.248c0.352,0.264 0.575,0.688 0.578,1.167l0,0.113c0.002,0.349 -0.12,0.67 -0.325,0.921c-0.07,-0.026 -0.146,-0.06 -0.22,-0.105l-0.009,0.017c0.066,0.044 0.138,0.08 0.214,0.107c-0.071,0.084 -0.151,0.16 -0.238,0.226c-0.352,0.296 -0.58,0.746 -0.58,1.246c-0,0.9 0.72,1.624 1.609,1.624l0.027,0c0.888,0 1.608,-0.724 1.608,-1.624c-0,-0.5 -0.227,-0.95 -0.579,-1.246c-0.087,-0.066 -0.167,-0.142 -0.237,-0.226c0.016,-0.005 0.033,-0.012 0.049,-0.019l-0.007,-0.023l-0.058,0.022Zm10.014,-1.15c0,-0.678 -0.545,-1.229 -1.216,-1.229c-0.672,0 -1.217,0.551 -1.217,1.229c0,0.678 0.545,1.228 1.217,1.228c0.671,0 1.216,-0.55 1.216,-1.228Zm-12.554,-0c0,-0.678 -0.545,-1.229 -1.216,-1.229c-0.672,0 -1.217,0.551 -1.217,1.229c0,0.678 0.545,1.228 1.217,1.228c0.671,0 1.216,-0.55 1.216,-1.228Zm6.653,-4.311c0,-0.904 -0.726,-1.637 -1.621,-1.637c-0.896,-0 -1.622,0.733 -1.622,1.637c-0,0.904 0.726,1.638 1.622,1.638c0.895,-0 1.621,-0.734 1.621,-1.638Z" style="fill:#222;"/></g></g></g></g></svg>