<?xml version="1.0" encoding="UTF-8" standalone="no"?><!DOCTYPE svg PUBLIC "-//W3C//DTD SVG 1.1//EN" "http://www.w3.org/Graphics/SVG/1.1/DTD/svg11.dtd"><svg width="100%" height="100%" viewBox="0 0 15 15" version="1.1" xmlns="http://www.w3.org/2000/svg" xmlns:xlink="http://www.w3.org/1999/xlink" xml:space="preserve" xmlns:serif="http://www.serif.com/" style="fill-rule:evenodd;clip-rule:evenodd;stroke-linejoin:round;stroke-miterlimit:2;"><g id="ObjectIcons_SoundbankInit_nor"><g id="Icons"><g id="Base-Block" serif:id="Base Block"><path d="M15,2.1c-0,-1.159 -0.941,-2.1 -2.1,-2.1l-10.8,0c-1.159,0 -2.1,0.941 -2.1,2.1l-0,10.8c-0,1.159 0.941,2.1 2.1,2.1l10.8,0c1.159,0 2.1,-0.941 2.1,-2.1l-0,-10.8Z" style="fill-opacity:0;"/></g><path d="M2,4l-0.25,0c-0.966,0 -1.75,0.784 -1.75,1.75l-0,3.5c-0,0.966 0.784,1.75 1.75,1.75l0.25,0l-0,0.58c-0,1.336 1.084,2.42 2.42,2.42l6.16,0c1.336,0 2.42,-1.084 2.42,-2.42l-0,-0.58l0.25,0c0.966,0 1.75,-0.784 1.75,-1.75l-0,-3.5c-0,-0.966 -0.784,-1.75 -1.75,-1.75l-0.25,0l-0,-0.58c-0,-1.336 -1.084,-2.42 -2.42,-2.42l-6.16,0c-1.336,0 -2.42,1.084 -2.42,2.42l-0,0.58Zm10,1l-0,-1.74c-0,-0.695 -0.565,-1.26 -1.26,-1.26l-6.48,0c-0.695,0 -1.26,0.565 -1.26,1.26l-0,1.74l-2,0l-0,1l2,0l-0,1l-2,0l-0,1l2,0l-0,1l-2,0l-0,1l2,0l-0,1.74c-0,0.695 0.565,1.26 1.26,1.26l6.48,0c0.695,0 1.26,-0.565 1.26,-1.26l-0,-1.74l2,0l-0,-1l-2,0l-0,-1l2,0l-0,-1l-2,0l-0,-1l2,0l-0,-1l-2,0Z" style="fill:#222;"/><rect x="13" y="7" width="1" height="1" style="fill:#e2e2e2;"/><rect x="13" y="5" width="1" height="1" style="fill:#e2e2e2;"/><rect x="13" y="9" width="1" height="1" style="fill:#e2e2e2;"/><rect x="1" y="7" width="1" height="1" style="fill:#e2e2e2;"/><rect x="1" y="5" width="1" height="1" style="fill:#e2e2e2;"/><rect x="1" y="9" width="1" height="1" style="fill:#e2e2e2;"/><path d="M12,3.26c-0,-0.695 -0.565,-1.26 -1.26,-1.26l-6.48,0c-0.695,0 -1.26,0.565 -1.26,1.26l-0,8.48c-0,0.695 0.565,1.26 1.26,1.26l6.48,0c0.695,0 1.26,-0.565 1.26,-1.26l-0,-8.48Z" style="fill:#c8c8c8;"/><path d="M5,11l0,-0.977l2,-0.023l-0,-5l-2,-0l0,-1l5,0l0,1l-2,-0l-0,5l2,-0l0,1l-5,0Z" style="fill:#222;fill-rule:nonzero;"/><rect x="12" y="5" width="1" height="1" style="fill:#919191;"/><rect x="12" y="7" width="1" height="1" style="fill:#919191;"/><rect x="12" y="9" width="1" height="1" style="fill:#919191;"/><rect x="2" y="5" width="1" height="1" style="fill:#919191;"/><rect x="2" y="7" width="1" height="1" style="fill:#919191;"/><rect x="2" y="9" width="1" height="1" style="fill:#919191;"/></g></g></svg>