<?xml version="1.0" encoding="UTF-8" standalone="no"?>
<!DOCTYPE svg PUBLIC "-//W3C//DTD SVG 1.1//EN" "http://www.w3.org/Graphics/SVG/1.1/DTD/svg11.dtd">
<svg width="100%" height="100%" viewBox="0 0 15 15" version="1.1" xmlns="http://www.w3.org/2000/svg" xmlns:xlink="http://www.w3.org/1999/xlink" xml:space="preserve" xmlns:serif="http://www.serif.com/" style="fill-rule:evenodd;clip-rule:evenodd;stroke-linejoin:round;stroke-miterlimit:1.41421;">
    <g transform="matrix(1,0,0,1,-40,-165)">
        <g transform="matrix(1,0,0,1,40,165)">
            <g id="ObjectIcons_StateGroup_nor">
                <g id="Icons">
                    <g transform="matrix(1,0,0,1,-40,-25)">
                        <g id="Base-Block" serif:id="Base Block">
                            <path d="M55,27.1C55,25.941 54.059,25 52.9,25L42.1,25C40.941,25 40,25.941 40,27.1L40,37.9C40,39.059 40.941,40 42.1,40L52.9,40C54.059,40 55,39.059 55,37.9L55,27.1Z" style="fill-opacity:0;"/>
                        </g>
                    </g>
                    <path d="M4.346,6.008C4.123,5.554 4,5.041 4,4.5C4,2.568 5.568,1 7.5,1C9.432,1 11,2.568 11,4.5C11,5.041 10.877,5.554 10.654,6.008C12.514,6.084 14,7.62 14,9.5C14,11.432 12.432,13 10.5,13C9.225,13 8.108,12.317 7.5,11.295C6.892,12.317 5.775,13 4.5,13C2.568,13 1,11.432 1,9.5C1,7.62 2.486,6.084 4.346,6.008ZM7.183,9.48C7.183,10.923 5.991,12.092 4.52,12.092C3.05,12.092 1.858,10.923 1.858,9.48C1.858,8.037 3.05,6.867 4.52,6.867C5.991,6.867 7.183,8.037 7.183,9.48ZM13.183,9.48C13.183,10.923 11.991,12.092 10.52,12.092C9.05,12.092 7.858,10.923 7.858,9.48C7.858,8.037 9.05,6.867 10.52,6.867C11.991,6.867 13.183,8.037 13.183,9.48ZM4,11C5.414,11 5.96,10.345 5.96,9.48C5.96,8.613 5.414,8 4,8L4,11ZM10,11C11.414,11 11.96,10.345 11.96,9.48C11.96,8.613 11.414,8 10,8L10,11ZM10.183,4.48C10.183,5.923 8.991,7.092 7.52,7.092C6.05,7.092 4.858,5.923 4.858,4.48C4.858,3.037 6.05,1.867 7.52,1.867C8.991,1.867 10.183,3.037 10.183,4.48ZM7,6C8.414,6 8.96,5.345 8.96,4.48C8.96,3.613 8.414,3 7,3L7,6Z" style="fill:rgb(34,34,34);"/>
                    <g transform="matrix(1.06499,0,0,1.04499,6.98777,2.70325)">
                        <path d="M0.011,3.155C1.339,3.155 1.852,2.528 1.852,1.7C1.852,0.871 1.339,0.284 0.011,0.284L0.011,3.155ZM3,1.7C3,3.081 1.881,4.2 0.5,4.2C-0.881,4.2 -2,3.081 -2,1.7C-2,0.319 -0.881,-0.8 0.5,-0.8C1.881,-0.8 3,0.319 3,1.7" style="fill:rgb(226,226,226);"/>
                    </g>
                    <g transform="matrix(1.06499,0,0,1.04499,6.12999,8.83599)">
                        <path d="M-2,2.071C-0.672,2.071 -0.159,1.444 -0.159,0.616C-0.159,-0.213 -0.672,-0.8 -2,-0.8L-2,2.071ZM0.989,0.616C0.989,1.997 -0.13,3.116 -1.511,3.116C-2.892,3.116 -4.011,1.997 -4.011,0.616C-4.011,-0.765 -2.892,-1.884 -1.511,-1.884C-0.13,-1.884 0.989,-0.765 0.989,0.616" style="fill:rgb(226,226,226);"/>
                    </g>
                    <g transform="matrix(1.06499,0,0,1.04499,6.98777,2.70325)">
                        <path d="M2.828,7.94C4.156,7.94 4.669,7.313 4.669,6.485C4.669,5.656 4.156,5.069 2.828,5.069L2.828,7.94ZM5.817,6.485C5.817,7.866 4.698,8.985 3.317,8.985C1.936,8.985 0.817,7.866 0.817,6.485C0.817,5.104 1.936,3.985 3.317,3.985C4.698,3.985 5.817,5.104 5.817,6.485" style="fill:rgb(226,226,226);"/>
                    </g>
                </g>
            </g>
        </g>
    </g>
</svg>
